<?xml version="1.0" encoding="iso-8859-1"?>
<!-- Generator: Adobe Illustrator 17.1.0, SVG Export Plug-In . SVG Version: 6.00 Build 0)  -->
<!DOCTYPE svg PUBLIC "-//W3C//DTD SVG 1.1//EN" "http://www.w3.org/Graphics/SVG/1.1/DTD/svg11.dtd">
<svg version="1.1" id="Capa_1" xmlns="http://www.w3.org/2000/svg" xmlns:xlink="http://www.w3.org/1999/xlink" x="0px" y="0px"
	 viewBox="0 0 187.131 187.131" style="enable-background:new 0 0 187.131 187.131;" xml:space="preserve">
<path style="fill:#000002;" d="M37.634,187.131c-0.64,0-1.28-0.244-1.768-0.732l-25.772-25.771c-0.976-0.977-0.976-2.559,0-3.535
	L112.248,54.938l-8.212-8.212c-4.169-4.169-6.465-9.712-6.465-15.607s2.296-11.438,6.465-15.606l9.059-9.059
	c8.606-8.605,22.609-8.604,31.214,0l27.005,27.005c8.606,8.605,8.606,22.608,0,31.215l-9.059,9.058
	c-8.605,8.606-22.608,8.606-31.214,0.001l-8.212-8.213L46.6,141.75l4.775,4.774c0.008,0.008,0.016,0.016,0.023,0.023
	c0.008,0.008,0.016,0.016,0.023,0.023l12.137,12.137c0.469,0.469,0.732,1.104,0.732,1.768s-0.263,1.299-0.732,1.768l-7.549,7.549
	c-0.976,0.977-2.56,0.977-3.535,0l-2.762-2.762l-6.655,6.656l2.761,2.762c0.469,0.469,0.732,1.104,0.732,1.768
	s-0.264,1.299-0.732,1.768l-6.417,6.416C38.913,186.887,38.273,187.131,37.634,187.131z M29.009,172.471l8.625,8.625l2.881-2.881
	l-2.761-2.762c-0.977-0.977-0.977-2.559,0-3.535l10.19-10.191c0.938-0.938,2.598-0.938,3.536,0l2.762,2.762l4.013-4.014
	l-8.625-8.624L29.009,172.471z M15.398,158.86l10.076,10.076l20.621-20.621l-4.798-4.798c-0.469-0.469-0.732-1.104-0.732-1.768
	s0.263-1.299,0.732-1.768l79.766-79.766c0.938-0.938,2.598-0.938,3.535,0l9.98,9.98c6.658,6.656,17.488,6.655,24.144-0.001
	l9.059-9.058c6.656-6.657,6.656-17.488,0-24.145L140.774,9.989c-6.656-6.655-17.486-6.656-24.144,0l-9.059,9.059
	c-3.224,3.225-5,7.512-5,12.071c0,4.561,1.776,8.848,5,12.072l9.979,9.979c0.469,0.469,0.732,1.104,0.732,1.768
	s-0.263,1.299-0.732,1.768L15.398,158.86z M145.929,69.985c-3.741,0-7.257-1.457-9.903-4.103h0h0l-24.14-24.141
	c-2.645-2.645-4.102-6.161-4.102-9.902c0-3.74,1.457-7.257,4.102-9.902l7.635-7.635c2.645-2.646,6.162-4.103,9.902-4.103
	s7.258,1.457,9.903,4.103l24.14,24.141c2.645,2.645,4.102,6.161,4.102,9.902s-1.457,7.258-4.102,9.902l-7.635,7.635
	C153.186,68.528,149.669,69.985,145.929,69.985z M129.423,15.2c-2.405,0-4.666,0.937-6.367,2.638l-7.635,7.635
	c-1.701,1.701-2.637,3.962-2.637,6.367s0.937,4.666,2.637,6.367l24.141,24.141c0,0,0,0,0,0c1.701,1.701,3.961,2.638,6.367,2.638
	s4.666-0.937,6.367-2.638l7.635-7.635c1.701-1.701,2.637-3.962,2.637-6.367s-0.937-4.666-2.637-6.367l-24.14-24.141
	C134.089,16.136,131.828,15.2,129.423,15.2z"/>
<g>
</g>
<g>
</g>
<g>
</g>
<g>
</g>
<g>
</g>
<g>
</g>
<g>
</g>
<g>
</g>
<g>
</g>
<g>
</g>
<g>
</g>
<g>
</g>
<g>
</g>
<g>
</g>
<g>
</g>
</svg>
