<?xml version="1.0" encoding="iso-8859-1"?>
<!-- Generator: Adobe Illustrator 19.0.0, SVG Export Plug-In . SVG Version: 6.00 Build 0)  -->
<svg version="1.1" id="Layer_1" xmlns="http://www.w3.org/2000/svg" xmlns:xlink="http://www.w3.org/1999/xlink" x="0px" y="0px"
	 viewBox="0 0 512 512" style="enable-background:new 0 0 512 512;" xml:space="preserve">
<g>
	<g>
		<g>
			<path d="M196.267,409.6h-34.133c-4.71,0-8.533,3.823-8.533,8.533s3.823,8.533,8.533,8.533h34.133c4.71,0,8.533-3.823,8.533-8.533
				S200.977,409.6,196.267,409.6z"/>
			<path d="M110.933,324.267H93.867c-4.71,0-8.533,3.823-8.533,8.533c0,4.71,3.823,8.533,8.533,8.533h8.533v153.6H85.333v-128
				c0-4.71-3.823-8.533-8.533-8.533s-8.533,3.823-8.533,8.533v128h-8.533c-23.526,0-42.667-19.14-42.667-42.667V384
				c0-23.526,19.14-42.667,42.667-42.667c4.71,0,8.533-3.823,8.533-8.533v-68.267c0-4.71-3.823-8.533-8.533-8.533
				s-8.533,3.823-8.533,8.533v60.339C22.289,329.028,0,353.954,0,384v68.267C0,485.205,26.795,512,59.733,512h51.2
				c4.71,0,8.533-3.823,8.533-8.533V332.8C119.467,328.09,115.644,324.267,110.933,324.267z"/>
			<path d="M358.4,418.133c0-4.71-3.823-8.533-8.533-8.533h-34.133c-4.71,0-8.533,3.823-8.533,8.533s3.823,8.533,8.533,8.533h34.133
				C354.577,426.667,358.4,422.844,358.4,418.133z"/>
			<path d="M184.533,470.477l-29.568-17.067c-4.096-2.372-9.301-0.956-11.657,3.123c-2.355,4.087-0.956,9.301,3.123,11.656
				L176,485.257c1.348,0.776,2.816,1.143,4.258,1.143c2.953,0,5.82-1.527,7.398-4.267
				C190.012,478.046,188.612,472.832,184.533,470.477z"/>
			<path d="M150.707,384c1.451,0,2.91-0.367,4.258-1.143l29.568-17.067c4.079-2.355,5.478-7.569,3.123-11.657
				c-2.364-4.087-7.569-5.487-11.657-3.123l-29.568,17.067c-4.079,2.355-5.478,7.569-3.123,11.657
				C144.887,382.473,147.755,384,150.707,384z"/>
			<path d="M443.733,238.933H460.8c8.277,0,17.067-5.982,17.067-17.067C477.867,99.533,378.334,0,256,0
				S34.133,99.533,34.133,221.867c0,8.277,5.982,17.067,17.067,17.067h17.067c8.277,0,17.067-5.982,17.067-17.067
				C85.333,127.761,161.894,51.2,256,51.2s170.667,76.561,170.667,170.667C426.667,230.144,432.649,238.933,443.733,238.933z
				 M256,34.133c-103.518,0-187.733,84.215-187.733,187.733H51.2c0-112.922,91.878-204.8,204.8-204.8s204.8,91.878,204.561,204.8
				h-16.828C443.733,118.349,359.518,34.133,256,34.133z"/>
			<path d="M357.035,453.41l-29.568,17.067c-4.079,2.355-5.478,7.569-3.123,11.657c1.579,2.739,4.446,4.267,7.398,4.267
				c1.442,0,2.91-0.367,4.258-1.143l29.568-17.067c4.079-2.355,5.478-7.569,3.123-11.656
				C366.328,452.454,361.122,451.038,357.035,453.41z"/>
			<path d="M460.8,324.873v-60.339c0-4.71-3.823-8.533-8.533-8.533c-4.71,0-8.533,3.823-8.533,8.533V332.8
				c0,4.71,3.823,8.533,8.533,8.533c23.526,0,42.667,19.14,42.667,42.667v68.267c0,23.526-19.14,42.667-42.667,42.667h-8.533v-128
				c0-4.71-3.823-8.533-8.533-8.533c-4.71,0-8.533,3.823-8.533,8.533v128H409.6v-153.6h8.533c4.71,0,8.533-3.823,8.533-8.533
				c0-4.71-3.823-8.533-8.533-8.533h-17.067c-4.71,0-8.533,3.823-8.533,8.533v170.667c0,4.71,3.823,8.533,8.533,8.533h51.2
				C485.205,512,512,485.205,512,452.267V384C512,353.954,489.711,329.028,460.8,324.873z"/>
			<path d="M365.568,368.077L336,351.01c-4.096-2.364-9.301-0.964-11.656,3.123c-2.355,4.087-0.956,9.301,3.123,11.657
				l29.568,17.067c1.348,0.777,2.807,1.143,4.258,1.143c2.953,0,5.811-1.527,7.398-4.267
				C371.046,375.646,369.647,370.432,365.568,368.077z"/>
		</g>
	</g>
</g>
<g>
</g>
<g>
</g>
<g>
</g>
<g>
</g>
<g>
</g>
<g>
</g>
<g>
</g>
<g>
</g>
<g>
</g>
<g>
</g>
<g>
</g>
<g>
</g>
<g>
</g>
<g>
</g>
<g>
</g>
</svg>
